<svg width="19" height="19" viewBox="0 0 19 19" fill="none" xmlns="http://www.w3.org/2000/svg">
<path d="M11.0501 2.48221L11.8225 1.70981C13.1022 0.430062 15.1771 0.430062 16.4568 1.70981C17.7366 2.98957 17.7366 5.06446 16.4568 6.34421L15.6844 7.11661M11.0501 2.48221C11.0501 2.48221 11.1466 4.12356 12.5949 5.57181C14.0431 7.02006 15.6844 7.11661 15.6844 7.11661M11.0501 2.48221L3.94902 9.58325C3.46805 10.0642 3.22757 10.3047 3.02075 10.5699C2.77678 10.8827 2.56761 11.2211 2.39695 11.5792C2.25228 11.8828 2.14473 12.2054 1.92963 12.8507L1.01817 15.5851M15.6844 7.11661L8.58342 14.2176C8.10245 14.6986 7.86196 14.9391 7.5968 15.1459C7.28401 15.3899 6.94558 15.5991 6.58748 15.7697C6.28391 15.9144 5.96127 16.0219 5.31598 16.237L2.5816 17.1485M2.5816 17.1485L1.9132 17.3713C1.59565 17.4771 1.24555 17.3945 1.00886 17.1578C0.772171 16.9211 0.689523 16.571 0.795374 16.2535L1.01817 15.5851M2.5816 17.1485L1.01817 15.5851" stroke="#145DB8" stroke-width="1.5"/>
</svg>
