<svg width="18" height="18" viewBox="0 0 18 18" fill="none" xmlns="http://www.w3.org/2000/svg">
<path fill-rule="evenodd" clip-rule="evenodd" d="M8.95833 1.25C4.70114 1.25 1.25 4.70114 1.25 8.95833C1.25 13.2155 4.70114 16.6667 8.95833 16.6667C13.2155 16.6667 16.6667 13.2155 16.6667 8.95833C16.6667 4.70114 13.2155 1.25 8.95833 1.25ZM0 8.95833C0 4.01078 4.01078 0 8.95833 0C13.9059 0 17.9167 4.01078 17.9167 8.95833C17.9167 13.9059 13.9059 17.9167 8.95833 17.9167C4.01078 17.9167 0 13.9059 0 8.95833ZM8.95833 5C9.30351 5 9.58333 5.27982 9.58333 5.625V8.69945L11.4836 10.5997C11.7277 10.8438 11.7277 11.2395 11.4836 11.4836C11.2395 11.7277 10.8438 11.7277 10.5997 11.4836L8.51639 9.40028C8.39918 9.28307 8.33333 9.12409 8.33333 8.95833V5.625C8.33333 5.27982 8.61316 5 8.95833 5Z" fill="#6D7379"/>
</svg>
