<svg width="56" height="56" viewBox="0 0 56 56" fill="none" xmlns="http://www.w3.org/2000/svg">
<rect width="56" height="56" rx="28" fill="white"/>
<path d="M28 31.8182C32.7447 31.8182 36.5909 28.1143 36.5909 23.5454C36.5909 18.9765 32.7447 15.2727 28 15.2727C23.2554 15.2727 19.4091 18.9765 19.4091 23.5454C19.4091 28.1143 23.2554 31.8182 28 31.8182Z" fill="#05162C"/>
<path d="M32.8237 32.5946C33.2437 32.3783 33.7273 32.6965 33.7273 33.1674V39.3401C33.7273 40.4855 32.9255 41.0455 31.9328 40.5746L28.5219 38.9583C28.2291 38.831 27.7709 38.831 27.4782 38.9583L24.0673 40.5746C23.0746 41.0328 22.2728 40.4728 22.2728 39.3274L22.2982 33.1674C22.2982 32.6965 22.7946 32.391 23.2019 32.5946C24.64 33.3201 26.2691 33.7274 28 33.7274C29.7309 33.7274 31.3728 33.3201 32.8237 32.5946Z" fill="#05162C"/>
</svg>
