<svg width="56" height="56" viewBox="0 0 56 56" fill="none" xmlns="http://www.w3.org/2000/svg">
<rect width="56" height="56" rx="28" fill="white"/>
<path d="M29.5145 20.3635H21.3691C21.0382 20.3635 20.72 20.3763 20.4145 20.4144C16.9909 20.7072 15.2727 22.7308 15.2727 26.4599V31.5508C15.2727 36.6417 17.3091 37.6472 21.3691 37.6472H21.8782C22.1582 37.6472 22.5273 37.8381 22.6927 38.0544L24.22 40.0908C24.8945 40.9944 25.9891 40.9944 26.6636 40.0908L28.1909 38.0544C28.3818 37.7999 28.6873 37.6472 29.0054 37.6472H29.5145C33.2436 37.6472 35.2673 35.9417 35.56 32.5053C35.5982 32.1999 35.6109 31.8817 35.6109 31.5508V26.4599C35.6109 22.3999 33.5745 20.3635 29.5145 20.3635ZM21 30.5453C20.2873 30.5453 19.7273 29.9726 19.7273 29.2726C19.7273 28.5726 20.3 27.9999 21 27.9999C21.7 27.9999 22.2727 28.5726 22.2727 29.2726C22.2727 29.9726 21.7 30.5453 21 30.5453ZM25.4418 30.5453C24.7291 30.5453 24.1691 29.9726 24.1691 29.2726C24.1691 28.5726 24.7418 27.9999 25.4418 27.9999C26.1418 27.9999 26.7145 28.5726 26.7145 29.2726C26.7145 29.9726 26.1545 30.5453 25.4418 30.5453ZM29.8963 30.5453C29.1836 30.5453 28.6236 29.9726 28.6236 29.2726C28.6236 28.5726 29.1963 27.9999 29.8963 27.9999C30.5963 27.9999 31.1691 28.5726 31.1691 29.2726C31.1691 29.9726 30.5963 30.5453 29.8963 30.5453Z" fill="#05162C"/>
<path d="M40.7019 21.3691V26.46C40.7019 29.0054 39.9128 30.7363 38.3346 31.6909C37.9528 31.92 37.5073 31.6145 37.5073 31.1691L37.5201 26.46C37.5201 21.3691 34.6055 18.4545 29.5146 18.4545L21.7637 18.4673C21.3183 18.4673 21.0128 18.0218 21.2419 17.64C22.1964 16.0618 23.9273 15.2727 26.4601 15.2727H34.6055C38.6655 15.2727 40.7019 17.3091 40.7019 21.3691Z" fill="#05162C"/>
</svg>
