<svg width="56" height="56" viewBox="0 0 56 56" fill="none" xmlns="http://www.w3.org/2000/svg">
<rect width="56" height="56" rx="28" fill="white"/>
<path d="M24.1818 15.2727C20.8473 15.2727 18.1364 17.9836 18.1364 21.3182C18.1364 24.5891 20.6945 27.2363 24.0291 27.3509C24.1309 27.3382 24.2327 27.3382 24.3091 27.3509C24.3345 27.3509 24.3473 27.3509 24.3727 27.3509C24.3854 27.3509 24.3854 27.3509 24.3982 27.3509C27.6564 27.2363 30.2145 24.5891 30.2273 21.3182C30.2273 17.9836 27.5164 15.2727 24.1818 15.2727Z" fill="#05162C"/>
<path d="M30.6473 30.7361C27.0964 28.3689 21.3055 28.3689 17.7291 30.7361C16.1128 31.818 15.2219 33.2816 15.2219 34.8471C15.2219 36.4125 16.1128 37.8634 17.7164 38.9325C19.4982 40.1289 21.84 40.7271 24.1819 40.7271C26.5237 40.7271 28.8655 40.1289 30.6473 38.9325C32.251 37.8507 33.1419 36.3998 33.1419 34.8216C33.1291 33.2561 32.251 31.8052 30.6473 30.7361Z" fill="#05162C"/>
<path d="M38.1691 22.0693C38.3728 24.5384 36.6164 26.7021 34.1855 26.9948C34.1728 26.9948 34.1728 26.9948 34.16 26.9948H34.1218C34.0455 26.9948 33.9691 26.9948 33.9055 27.0202C32.6709 27.0839 31.5382 26.6893 30.6855 25.9639C31.9964 24.793 32.7473 23.0366 32.5946 21.1275C32.5055 20.0966 32.1491 19.1548 31.6146 18.353C32.0982 18.1111 32.6582 17.9584 33.2309 17.9075C35.7255 17.6911 37.9528 19.5493 38.1691 22.0693Z" fill="#05162C"/>
<path d="M40.7146 33.8417C40.6128 35.0762 39.8237 36.1453 38.5 36.8708C37.2273 37.5708 35.6237 37.9017 34.0328 37.8635C34.9491 37.0362 35.4837 36.0053 35.5855 34.9108C35.7128 33.3326 34.9619 31.8181 33.4601 30.609C32.6073 29.9344 31.6146 29.3999 30.5328 29.0053C33.3455 28.1908 36.8837 28.7381 39.06 30.4944C40.231 31.4362 40.8291 32.6199 40.7146 33.8417Z" fill="#05162C"/>
</svg>
