<svg width="56" height="56" viewBox="0 0 56 56" fill="none" xmlns="http://www.w3.org/2000/svg">
<rect width="55.9143" height="55.7784" rx="27.8892" fill="white"/>
<path d="M27.8893 35.3386C27.5523 35.3499 27.2208 35.4312 26.9684 35.5837L23.9391 37.3835C21.7717 38.6637 20.4537 37.7135 21.0241 35.2546L21.7467 32.1365C21.8607 31.5281 21.62 30.7041 21.2018 30.2859L18.6793 27.7634C17.1966 26.2805 17.6779 24.7853 19.7438 24.4304L22.9762 23.8982C23.521 23.8094 24.1669 23.3278 24.4078 22.8337L26.195 19.2585C26.6656 18.3296 27.2752 17.8497 27.8893 17.8181V35.3386Z" fill="#05162C"/>
<path d="M27.8893 17.8198C28.5485 17.786 29.2132 18.2691 29.7184 19.2729L31.5055 22.8471C31.7463 23.3414 32.3931 23.8102 32.9381 23.9116L36.1705 24.4438C38.2362 24.7861 38.7177 26.2823 37.235 27.7778L34.7125 30.3002C34.2943 30.7185 34.0536 31.5425 34.193 32.1381L34.9156 35.2563C35.4857 37.7148 34.1669 38.6779 31.9996 37.3852L28.9703 35.5854C28.6779 35.4087 28.2798 35.3273 27.8893 35.3403V17.8198Z" fill="#05162C"/>
</svg>
