<svg width="110" height="26" viewBox="0 0 110 26" fill="none" xmlns="http://www.w3.org/2000/svg">
<g clip-path="url(#clip0_833_3316)">
<path d="M12.4477 8.05598C16.5969 9.04789 20.7462 7.39471 23.194 4.20858L5.37305 0.000488281L5.82081 3.21667C7.25365 5.56118 9.58201 7.36465 12.4477 8.05598Z" fill="white"/>
<path d="M36.5672 7.36366L26.1194 4.89893C24.209 7.9047 21.1941 10.0388 17.7911 10.8203L0 6.61222L0.447762 9.8284C1.8806 12.1729 4.17911 14.0064 7.04479 14.6677C9.19404 15.1787 11.3433 14.9683 13.2537 14.2168L17.3135 15.1787C14.2985 17.403 10.3582 18.3348 6.44777 17.403C4.44777 16.922 2.68657 16.0203 1.16418 14.818L1.8209 19.3868L28.2388 25.6087C28.2388 25.6087 32.6866 26.6608 32.8359 25.248L31.8806 18.5752L33.612 18.996C33.612 18.996 38.0598 20.048 38.209 18.6353L36.5672 7.36366Z" fill="white"/>
<path d="M53.5228 21.0103C52.2392 21.0103 51.1348 20.7097 50.2392 20.1386C49.3437 19.5675 48.7169 18.756 48.3586 17.7641L50.5676 16.4716C51.0751 17.8242 52.09 18.4854 53.5825 18.4854C54.2989 18.4854 54.8363 18.3652 55.1646 18.0947C55.493 17.8242 55.6721 17.4935 55.6721 17.1028C55.6721 16.6519 55.4631 16.2912 55.0452 16.0207C54.6273 15.7502 53.9109 15.4797 52.8363 15.1791C52.2392 14.9987 51.7616 14.8184 51.3437 14.638C50.9258 14.4577 50.5377 14.2172 50.1198 13.9467C49.7019 13.6461 49.4034 13.2854 49.1945 12.8346C48.9855 12.3837 48.8661 11.8427 48.8661 11.2415C48.8661 10.0392 49.284 9.1074 50.1198 8.38601C50.9557 7.66462 51.9706 7.33398 53.1646 7.33398C54.2094 7.33398 55.1646 7.60451 55.9706 8.11549C56.7766 8.62647 57.4034 9.34786 57.8512 10.2797L55.6721 11.5421C55.1348 10.3999 54.2989 9.85884 53.1646 9.85884C52.6273 9.85884 52.2094 9.97907 51.9109 10.2195C51.6124 10.46 51.4631 10.7906 51.4631 11.1814C51.4631 11.6022 51.6422 11.9328 51.9706 12.2034C52.2989 12.4739 52.9855 12.7444 53.9407 13.045C54.3288 13.1652 54.6273 13.2554 54.8363 13.3456C55.0452 13.4057 55.3139 13.5259 55.6721 13.6762C56.0303 13.8265 56.2989 13.9467 56.5079 14.0669C56.687 14.1872 56.9258 14.3675 57.1646 14.5779C57.4034 14.7883 57.6124 14.9987 57.7318 15.2392C57.8512 15.4797 57.9706 15.7502 58.0601 16.0508C58.1497 16.3814 58.2094 16.712 58.2094 17.1028C58.2094 18.3051 57.7616 19.297 56.896 19.9883C56.0601 20.6496 54.9258 21.0103 53.5228 21.0103Z" fill="white"/>
<path d="M64.8064 11.0923C66.0601 11.0923 67.1347 11.5732 68.0302 12.5351C68.9258 13.4969 69.3735 14.6692 69.3735 16.0518C69.3735 17.4345 68.9258 18.6067 68.0302 19.5686C67.1347 20.5304 66.0601 21.0113 64.8064 21.0113C63.4929 21.0113 62.478 20.5605 61.7914 19.6287V24.498H59.3735V11.3327H61.7914V12.4449C62.478 11.5432 63.4929 11.0923 64.8064 11.0923ZM62.5079 17.9755C62.9855 18.4564 63.6123 18.727 64.3586 18.727C65.1049 18.727 65.7317 18.4865 66.2094 17.9755C66.687 17.4946 66.9556 16.8333 66.9556 16.0518C66.9556 15.2703 66.7168 14.6391 66.2094 14.1281C65.7019 13.6472 65.1049 13.3767 64.3586 13.3767C63.6123 13.3767 62.9855 13.6171 62.5079 14.1281C62.0302 14.609 61.7914 15.2703 61.7914 16.0518C61.7616 16.8333 62.0004 17.4645 62.5079 17.9755Z" fill="white"/>
<path d="M72.5972 17.043C72.9255 18.2152 73.7912 18.8164 75.2241 18.8164C76.1494 18.8164 76.836 18.5158 77.3136 17.8846L79.2539 19.0268C78.3285 20.3794 76.9853 21.0406 75.1644 21.0406C73.6121 21.0406 72.3882 20.5597 71.433 19.6279C70.5076 18.6961 70.03 17.4938 70.03 16.0811C70.03 14.6684 70.4778 13.4661 71.4032 12.5343C72.3285 11.5724 73.5226 11.1216 74.9554 11.1216C76.3285 11.1216 77.4629 11.6025 78.3584 12.5644C79.2539 13.5262 79.7017 14.6985 79.7017 16.1112C79.7017 16.4117 79.6718 16.7724 79.6121 17.1031H72.5972V17.043ZM72.5673 15.1794H77.3435C77.1942 14.5482 76.9255 14.0672 76.5076 13.7366C76.0897 13.436 75.5823 13.2557 75.045 13.2557C74.3882 13.2557 73.8509 13.436 73.433 13.7667C72.9853 14.0973 72.7166 14.5782 72.5673 15.1794Z" fill="white"/>
<path d="M86.1501 11.0923C87.165 11.0923 88.0307 11.4229 88.6874 12.1143C89.3441 12.8056 89.7023 13.7674 89.7023 14.9697V20.7408H87.2844V15.2703C87.2844 14.6391 87.1053 14.1582 86.7769 13.8275C86.4486 13.4969 86.0008 13.3166 85.4337 13.3166C84.8068 13.3166 84.2993 13.4969 83.9411 13.8877C83.5531 14.2784 83.374 14.8495 83.374 15.631V20.7108H80.9561V11.3327H83.374V12.3848C83.9411 11.5131 84.8665 11.0923 86.1501 11.0923Z" fill="white"/>
<path d="M96.4484 11.0923C97.4633 11.0923 98.329 11.4229 98.9857 12.1143C99.6425 12.8056 100.001 13.7674 100.001 14.9697V20.7408H97.5827V15.2703C97.5827 14.6391 97.4036 14.1582 97.0753 13.8275C96.7469 13.4969 96.2992 13.3166 95.732 13.3166C95.1051 13.3166 94.5977 13.4969 94.2395 13.8877C93.8514 14.2784 93.6723 14.8495 93.6723 15.631V20.7108H91.2544V11.3327H93.6723V12.3848C94.2395 11.5131 95.1648 11.0923 96.4484 11.0923Z" fill="white"/>
<path d="M107.433 11.332H110.001L106.598 20.7702C106.12 22.1228 105.463 23.0847 104.657 23.6858C103.851 24.287 102.866 24.5575 101.672 24.4974V22.243C102.329 22.243 102.836 22.1228 103.224 21.8222C103.612 21.5216 103.911 21.0708 104.12 20.4396L100.299 11.332H102.926L105.374 17.6442L107.433 11.332Z" fill="white"/>
</g>
<defs>
<clipPath id="clip0_833_3316">
<rect width="110" height="26" fill="white"/>
</clipPath>
</defs>
</svg>
