<svg width="24" height="24" viewBox="0 0 24 24" fill="none" xmlns="http://www.w3.org/2000/svg">
<path d="M0 9.375H24V14.625H0V9.375Z" fill="#E6E7E8"/>
<path d="M20.25 3.75H3.75C1.26488 3.75 0 5.59688 0 7.875V9.375H24V7.875C24 5.59688 22.7351 3.75 20.25 3.75Z" fill="#EC1C24"/>
<path d="M0 16.125C0 18.4031 1.26488 20.25 3.75 20.25H20.25C22.7351 20.25 24 18.4031 24 16.125V14.625H0V16.125Z" fill="#25333A"/>
<path fill-rule="evenodd" clip-rule="evenodd" d="M13.7415 10.653C13.7782 10.989 13.7775 11.3257 13.7936 11.6632C13.8244 12.3082 13.8484 12.9562 13.8746 13.6031V13.7201C13.677 13.5341 13.4959 13.3653 13.3166 13.1947C13.3117 13.1778 13.32 13.1662 13.332 13.1546C13.3646 13.1178 13.353 13.0743 13.3504 13.0346C13.332 12.7552 13.3267 12.4747 13.3121 12.1942C13.2926 11.7892 13.2806 11.385 13.2566 10.98C13.2502 10.8558 13.2904 10.7666 13.3972 10.7043C13.4644 10.6646 13.5094 10.6807 13.5116 10.7587C13.5176 10.9106 13.5229 11.0621 13.5311 11.214C13.5547 11.6508 13.5682 12.0885 13.5892 12.525C13.599 12.7278 13.6185 12.93 13.6121 13.1321C13.6099 13.1928 13.6136 13.2521 13.623 13.2881C13.5919 13.1613 13.617 13.0095 13.605 12.858C13.5829 12.6003 13.578 12.3416 13.5671 12.0828C13.551 11.6415 13.5255 11.202 13.5127 10.7606C13.5097 10.6196 13.5394 10.6008 13.6774 10.6503C13.6984 10.6541 13.7205 10.6406 13.7415 10.653ZM10.8052 13.2697C10.6496 13.4145 10.4932 13.5588 10.3267 13.7118C10.3267 13.5731 10.3222 13.4535 10.3275 13.3316C10.3605 12.5227 10.3961 11.7131 10.4302 10.9027C10.434 10.8191 10.4434 10.7362 10.4509 10.6526C10.473 10.6436 10.4884 10.6766 10.5116 10.6597C10.5334 10.6437 10.5583 10.6326 10.5847 10.6271C10.6462 10.6166 10.6811 10.6458 10.6811 10.7085C10.6811 10.9008 10.6684 11.091 10.659 11.2807C10.6526 11.4292 10.6417 11.5777 10.638 11.7262C10.6286 12.0607 10.6095 12.3945 10.5971 12.7271C10.5892 12.9131 10.5855 13.0998 10.5746 13.2843C10.5889 13.1107 10.5889 12.9337 10.596 12.759C10.62 12.1965 10.6446 11.634 10.6699 11.0715C10.6736 10.971 10.6845 10.8693 10.6807 10.7677C10.6792 10.7336 10.6845 10.6995 10.7205 10.6856C10.752 10.6717 10.7764 10.6938 10.8026 10.7085C10.9024 10.7677 10.9402 10.8528 10.9354 10.9698C10.9133 11.4463 10.8926 11.9228 10.8731 12.3993C10.8641 12.6135 10.8656 12.8291 10.8405 13.0436C10.8334 13.1182 10.8135 13.1932 10.8052 13.2697Z" fill="#BF9200"/>
<path fill-rule="evenodd" clip-rule="evenodd" d="M10.8052 13.27C10.7797 13.2005 10.7787 13.1243 10.8022 13.054C10.815 13.0518 10.8352 13.0859 10.8405 13.0484C10.8435 13.0147 10.8532 12.9832 10.8532 12.9509C10.8532 12.7327 10.8686 12.5148 10.8791 12.2984C10.8941 11.989 10.9012 11.6789 10.923 11.3707C10.9309 11.2668 10.9297 11.1618 10.932 11.0583C10.9335 11.0024 10.9309 10.9334 10.9984 10.9169C11.0655 10.9008 11.1052 10.9559 11.142 11.0054C11.1641 11.0354 11.1656 11.0718 11.1634 11.1085C11.1435 11.4029 11.1394 11.6969 11.1247 11.9917C11.112 12.2774 11.1019 12.5628 11.0884 12.8497C11.1084 12.4274 11.1266 12.0048 11.1431 11.5818C11.1472 11.4487 11.1574 11.3155 11.1611 11.1805C11.1641 11.0737 11.1926 11.053 11.301 11.0632C11.3516 11.0688 11.4004 11.0785 11.4521 11.0819C11.4757 11.0909 11.5016 11.0995 11.5087 11.128C11.4982 11.1663 11.4641 11.1622 11.4367 11.1629C11.3771 11.167 11.3569 11.2019 11.3734 11.2529C11.3925 11.3073 11.3854 11.3632 11.388 11.4175C11.3854 11.467 11.3842 11.5165 11.3801 11.566C11.3678 11.6746 11.3614 11.7838 11.361 11.893C11.3587 12.091 11.34 12.2902 11.3347 12.4878C11.3164 12.5608 11.3119 12.6366 11.3216 12.7113C11.3265 12.7353 11.3336 12.7593 11.3396 12.7833C11.3452 12.8189 11.3306 12.8512 11.3111 12.8789C11.3016 12.8894 11.29 12.8976 11.2769 12.9032C11.2639 12.9087 11.2499 12.9113 11.2357 12.9108C11.1994 12.9052 11.1836 12.9348 11.163 12.9528L10.8052 13.27ZM13.3342 13.1815C13.3277 13.1865 13.3217 13.1917 13.3162 13.1969C13.239 13.1249 13.1602 13.0537 13.0841 12.9802C13.0785 12.964 13.0856 12.9513 13.0946 12.9385C13.1021 12.9247 13.1002 12.91 13.1002 12.8947C13.0946 12.4529 13.0706 12.0138 13.0485 11.5735C13.0406 11.4134 13.0466 11.2518 13.029 11.092C13.0249 11.0645 13.0312 11.0365 13.0466 11.0133C13.0826 10.9623 13.1227 10.9019 13.1944 10.9192C13.2611 10.9357 13.2592 11.005 13.26 11.0605C13.2724 11.5488 13.3024 12.037 13.3237 12.5253C13.3312 12.7 13.3237 12.877 13.3496 13.0514C13.3552 13.093 13.3616 13.1403 13.3342 13.1815ZM13.0972 13.45C13.1047 13.5205 13.1336 13.5374 13.2075 13.5164C13.3219 13.4834 13.4824 13.5618 13.4591 13.7073C13.4539 13.747 13.464 13.7733 13.5041 13.792C13.563 13.8194 13.584 13.8959 13.656 13.909C13.6665 13.9117 13.6721 13.933 13.6627 13.9402C13.5952 13.9795 13.6151 14.0744 13.5514 14.1168C13.5427 14.1235 13.5304 14.1348 13.5292 14.1445C13.5247 14.2743 13.4287 14.2975 13.329 14.3189C12.8557 14.422 12.3761 14.4318 11.895 14.422C11.5402 14.416 11.1862 14.3965 10.839 14.3114C10.7475 14.2904 10.6894 14.2559 10.6579 14.1539C10.633 14.083 10.5958 14.0169 10.548 13.9589C10.5202 13.9248 10.5277 13.9214 10.5589 13.8959C10.6372 13.8322 10.7449 13.7935 10.7385 13.6537C10.7336 13.5535 10.875 13.4789 10.9856 13.5157C11.0576 13.5393 11.088 13.5217 11.0959 13.45C11.1199 13.4452 11.1292 13.462 11.1379 13.4789C11.1506 13.5059 11.1476 13.5333 11.1442 13.5618C11.1398 13.5744 11.1311 13.5851 11.1195 13.5918C11.0846 13.6083 11.0501 13.5985 11.0167 13.5888C10.9927 13.5809 10.9631 13.5697 10.9417 13.5952C10.9151 13.6285 10.9556 13.6383 10.9669 13.6593C10.9728 13.6694 10.9754 13.681 10.9744 13.6927C10.9687 13.7122 10.9526 13.7223 10.9369 13.7317C10.8825 13.744 10.8375 13.7684 10.8135 13.8239C10.8026 13.8509 10.7741 13.8655 10.7479 13.8832C10.6744 13.9345 10.6672 13.975 10.722 14.044C10.7321 14.0579 10.7486 14.0714 10.752 14.0879C10.7741 14.1982 10.8596 14.2169 10.9507 14.2349C11.2579 14.2942 11.5699 14.3204 11.8834 14.3223C12.1642 14.3249 12.444 14.3302 12.7241 14.3043C12.9225 14.2859 13.1212 14.266 13.3147 14.2169C13.3717 14.2027 13.4141 14.1805 13.428 14.1179C13.4344 14.089 13.4554 14.065 13.4737 14.0414C13.5229 13.9807 13.5199 13.9345 13.4587 13.8907C13.4166 13.8671 13.3819 13.8323 13.3582 13.7902C13.3339 13.7418 13.2874 13.7485 13.2409 13.7549C13.1145 13.7763 12.9926 13.8127 12.867 13.837C12.8505 13.8348 12.8396 13.8258 12.8302 13.8112C12.8216 13.7978 12.8166 13.7825 12.8155 13.7666C12.8145 13.7507 12.8175 13.7348 12.8242 13.7204C12.8309 13.7072 12.8419 13.6968 12.8554 13.6908C12.9911 13.7463 13.107 13.6578 13.2341 13.6424C13.2517 13.6398 13.2615 13.6263 13.2596 13.6102C13.2532 13.5858 13.2337 13.579 13.2097 13.5824C13.1666 13.5873 13.1242 13.6132 13.0785 13.5948C13.0665 13.588 13.057 13.5775 13.0515 13.5648C13.0449 13.5367 13.0466 13.5072 13.0564 13.48C13.0642 13.4628 13.0732 13.4455 13.0987 13.45" fill="#BF9200"/>
<path fill-rule="evenodd" clip-rule="evenodd" d="M13.1017 12.9637L13.0837 12.9776C13.029 12.9543 13.0024 12.8898 12.9409 12.8752C12.9348 12.8801 12.9276 12.8833 12.9199 12.8846C12.9122 12.8858 12.9043 12.8851 12.897 12.8823C12.8621 12.8595 12.8497 12.828 12.8516 12.7882C12.855 12.7635 12.8655 12.7406 12.8692 12.7147C12.8808 12.6425 12.8771 12.5687 12.8584 12.498C12.8509 12.282 12.8306 12.0678 12.8299 11.8511C12.8299 11.7795 12.8404 11.7033 12.7976 11.6377C12.7827 11.6273 12.771 11.6128 12.7639 11.5961C12.7796 11.4885 12.8014 11.382 12.8145 11.2732C12.825 11.1836 12.828 11.1791 12.7399 11.163C12.717 11.1588 12.6922 11.1588 12.6832 11.1296C12.69 11.0996 12.7174 11.0921 12.7417 11.082C12.7976 11.0771 12.8535 11.0658 12.9094 11.0606C12.9941 11.0523 13.0256 11.0767 13.0305 11.1622C13.0387 11.3328 13.0444 11.5023 13.0515 11.6722C13.0736 12.0933 13.0834 12.5171 13.1089 12.939C13.1089 12.948 13.1044 12.9562 13.1017 12.9637Z" fill="#BF9200"/>
<path fill-rule="evenodd" clip-rule="evenodd" d="M12.9064 12.874L12.9412 12.8751L13.0117 13.1593C13.0219 13.1762 13.0207 13.1908 13.002 13.2017C12.9881 13.2088 12.9694 13.1826 12.9566 13.2088C12.8959 13.327 12.9191 13.4368 13.0279 13.5205C13.0425 13.5306 13.0579 13.5388 13.0646 13.558L13.0856 13.5748C13.0849 13.6165 13.05 13.6195 13.0249 13.6262C12.9592 13.6397 12.8959 13.6607 12.8284 13.6562C12.8047 13.6562 12.7813 13.6612 12.7597 13.6708C12.6255 13.6971 12.4897 13.6956 12.3547 13.6907C12.3311 13.6892 12.3034 13.687 12.2959 13.7185C12.2895 13.7485 12.3139 13.7582 12.3375 13.765C12.3975 13.7852 12.4601 13.7777 12.5209 13.7811C12.5546 13.783 12.5921 13.7713 12.6184 13.8055C12.6225 13.8523 12.5854 13.8546 12.5542 13.8598C12.516 13.8655 12.4772 13.8663 12.4387 13.8621C12.3615 13.8576 12.291 13.8718 12.2336 13.9296C12.226 13.9382 12.2165 13.945 12.2059 13.9495C12.1451 13.9701 12.0941 13.9018 12.0165 13.9476C11.9704 13.9757 11.898 13.891 11.8627 13.8276C11.8587 13.8148 11.8582 13.8012 11.8612 13.7882C11.8669 13.759 11.9152 13.7477 11.8969 13.7125C11.877 13.6761 11.8372 13.6941 11.8072 13.6907C11.7409 13.684 11.67 13.7207 11.6104 13.669C11.607 13.6093 11.6677 13.6172 11.6951 13.588C11.7117 13.574 11.7323 13.5657 11.754 13.5643C11.7672 13.5646 11.7792 13.569 11.79 13.5775C11.8001 13.5872 11.811 13.6003 11.8264 13.5988C11.9194 13.5895 11.9955 13.6217 12.0652 13.678C12.0825 13.6918 12.1031 13.6978 12.1219 13.6817C12.1965 13.6243 12.2794 13.5902 12.378 13.5973C12.3881 13.5973 12.3964 13.5842 12.4054 13.5767C12.4156 13.5689 12.4276 13.5639 12.4402 13.5621C12.5059 13.588 12.5524 13.5857 12.5861 13.5066C12.6157 13.4357 12.6551 13.4421 12.7406 13.5186C12.8006 13.4353 12.8002 13.4177 12.7279 13.3116C12.6866 13.3457 12.687 13.426 12.618 13.4252C12.5539 13.4252 12.54 13.3588 12.5025 13.3232C12.4676 13.363 12.495 13.4436 12.4166 13.4541C12.3799 13.4301 12.3769 13.3945 12.3832 13.3566C12.4114 13.276 12.4069 13.1938 12.3986 13.1121C12.4018 13.0988 12.4074 13.0862 12.4151 13.075C12.4545 13.0285 12.4451 12.9685 12.4594 12.9148C12.4721 12.8687 12.4706 12.8038 12.5355 12.7982C12.5932 12.7945 12.6187 12.85 12.6469 12.8912C12.6546 12.9019 12.6594 12.9144 12.6607 12.9276C12.6566 12.8912 12.6727 12.8451 12.6982 12.8038C12.7316 12.7506 12.7939 12.7555 12.8396 12.8121C12.8584 12.8357 12.8666 12.8725 12.9064 12.874Z" fill="#BF9200"/>
<path fill-rule="evenodd" clip-rule="evenodd" d="M11.7375 13.6276C11.7007 13.6606 11.6494 13.6317 11.6111 13.6602C11.559 13.7225 11.4979 13.6666 11.4416 13.6722C11.4161 13.6673 11.3936 13.6542 11.3677 13.6561C11.2995 13.6606 11.2346 13.6396 11.169 13.6261C11.1431 13.6193 11.1079 13.6167 11.1064 13.5747L11.1274 13.5578C11.1337 13.5387 11.1495 13.5308 11.1641 13.5203C11.2717 13.4367 11.2969 13.3268 11.2365 13.2098C11.2226 13.1843 11.2046 13.2087 11.19 13.202C11.1705 13.1911 11.1705 13.1765 11.1802 13.1596C11.1885 13.0741 11.2354 12.9976 11.2354 12.911C11.2399 12.901 11.2469 12.8925 11.2557 12.886C11.2645 12.8796 11.2748 12.8755 11.2856 12.8742C11.3126 12.8742 11.3284 12.8573 11.3404 12.8345C11.3629 12.7936 11.3947 12.761 11.4461 12.7673C11.4964 12.7737 11.5042 12.8206 11.5196 12.8596C11.5237 12.8693 11.5237 12.8825 11.5335 12.8907C11.5399 12.8922 11.5432 12.8888 11.5477 12.8832C11.5804 12.8472 11.6036 12.7857 11.6632 12.7996C11.7307 12.815 11.724 12.8855 11.736 12.9387C11.7457 12.9811 11.7435 13.028 11.784 13.058C11.7933 13.0672 11.8 13.0787 11.8035 13.0913C11.787 13.184 11.775 13.2747 11.8185 13.3647C11.8211 13.3992 11.8129 13.4285 11.784 13.4495C11.6944 13.4528 11.7281 13.3613 11.6895 13.3242C11.5822 13.4637 11.5654 13.4637 11.469 13.3163C11.3962 13.3966 11.394 13.4153 11.4442 13.5166C11.4716 13.5177 11.4802 13.4888 11.4986 13.4765C11.5369 13.4498 11.5789 13.448 11.598 13.4888C11.6254 13.5571 11.682 13.5901 11.7375 13.6276ZM11.8421 10.304C11.8586 10.1975 11.8875 10.0932 11.8811 9.98483C11.8799 9.94898 11.87 9.91396 11.8522 9.8828C11.8344 9.85164 11.8093 9.82527 11.7791 9.80595C11.7609 9.79634 11.7405 9.79144 11.7199 9.7917C11.6884 9.78833 11.6479 9.85958 11.6276 9.78833C11.619 9.76094 11.6184 9.73165 11.6259 9.70393C11.6334 9.67621 11.6487 9.65123 11.67 9.63195C11.6809 9.62183 11.697 9.61245 11.7094 9.6132C11.8879 9.62558 12.0679 9.55583 12.246 9.63345C12.3394 9.67545 12.3967 9.73583 12.4031 9.8397C12.411 9.8577 12.4136 9.87458 12.3937 9.88583C12.3652 9.88583 12.3499 9.86558 12.3409 9.8442C12.3094 9.76583 12.2434 9.75983 12.1867 9.7932C12.0712 9.8637 11.9827 9.81758 11.898 9.7437C11.8627 9.71565 11.8227 9.69419 11.7799 9.68033C11.8579 9.69908 11.922 9.75345 11.9794 9.81195C12.0206 9.85245 12.0345 9.89708 11.9846 9.95145C11.9254 10.0148 11.9602 10.1048 11.9359 10.1802C11.9171 10.2361 11.9314 10.3085 11.8552 10.3351C11.8406 10.3291 11.835 10.3193 11.8421 10.304ZM12.5239 10.6531C12.5415 10.6966 12.5797 10.6887 12.6146 10.6868C12.777 10.6808 12.9195 10.6163 13.0597 10.5432C13.0755 10.5335 13.0837 10.5413 13.0897 10.5552C13.0882 10.6047 13.0485 10.6257 13.0132 10.6467C12.9539 10.6807 12.8902 10.7065 12.8239 10.7232C12.7447 10.7461 12.6682 10.7791 12.5929 10.8012C12.4897 10.8327 12.3709 10.8946 12.2539 10.8192C12.2227 10.7997 12.192 10.7948 12.1545 10.8177C12.0686 10.8725 12.0176 10.8455 11.994 10.7397C11.9957 10.7335 11.9987 10.7278 12.0027 10.7229C12.0068 10.718 12.0119 10.714 12.0176 10.7112C12.1282 10.709 12.1312 10.7071 12.1297 10.5893C12.1297 10.5586 12.1245 10.5293 12.1279 10.4997C12.1391 10.4427 12.1421 10.385 12.1414 10.3276C12.141 10.295 12.135 10.262 12.1657 10.2391C12.2254 10.2368 12.219 10.283 12.2216 10.3193C12.228 10.4202 12.219 10.5207 12.2407 10.6212C12.249 10.6621 12.2625 10.6943 12.3169 10.7161C12.2723 10.5963 12.2424 10.4715 12.228 10.3445C12.2254 10.3175 12.2209 10.2916 12.2224 10.2646C12.2235 10.2282 12.2254 10.1843 12.273 10.1843C12.3097 10.1836 12.3266 10.2203 12.3289 10.2552C12.3322 10.3021 12.345 10.3478 12.3499 10.3955C12.3577 10.4757 12.3757 10.5537 12.4091 10.6276C12.4237 10.658 12.4399 10.7007 12.4879 10.6621C12.4987 10.6531 12.51 10.6478 12.5239 10.6531Z" fill="#BF9200"/>
<path fill-rule="evenodd" clip-rule="evenodd" d="M11.8421 10.3038C11.8474 10.3123 11.8532 10.3207 11.8597 10.3289C11.8976 10.3672 11.8729 10.4077 11.8612 10.4448C11.8342 10.5314 11.7795 10.6042 11.7352 10.6837C11.7952 10.6691 11.8189 10.6218 11.8369 10.5723C11.871 10.4804 11.904 10.3878 11.9167 10.2881C11.9186 10.2809 11.9167 10.2704 11.9201 10.2633C11.9389 10.2247 11.9295 10.1568 11.9891 10.1624C12.0566 10.1688 12.0266 10.2314 12.0244 10.2712C12.0136 10.429 11.9673 10.5823 11.889 10.7197C11.8781 10.7377 11.8669 10.7538 11.8654 10.7759C11.8455 10.7943 11.8455 10.8172 11.8507 10.8416C11.8181 10.8821 11.7832 10.8959 11.7559 10.8408C11.7379 10.8041 11.7161 10.8142 11.6891 10.8213C11.6362 10.8352 11.5894 10.8281 11.5537 10.7823C11.5286 10.7516 11.4926 10.7474 11.4562 10.7426C11.3617 10.7288 11.2707 10.6971 11.1881 10.6492C11.1491 10.6297 11.106 10.6087 11.1026 10.5551C11.1086 10.5412 11.1169 10.5329 11.133 10.5431C11.2695 10.6147 11.4086 10.6758 11.5672 10.6886C11.6201 10.6916 11.6535 10.6777 11.6831 10.6308C11.7476 10.5269 11.7971 10.4167 11.8421 10.3038Z" fill="#BF9200"/>
<path fill-rule="evenodd" clip-rule="evenodd" d="M11.133 10.5412C11.1255 10.5462 11.1177 10.5518 11.1097 10.558C11.0715 10.588 11.037 10.5659 11.0017 10.5502C10.9234 10.5145 10.8401 10.4907 10.7546 10.4797C10.653 10.4658 10.5776 10.5138 10.5367 10.6094C10.5217 10.6477 10.503 10.6867 10.4824 10.7219C10.4411 10.7118 10.4767 10.6675 10.4509 10.651C10.4891 10.4635 10.5994 10.3848 10.7869 10.4107C10.9119 10.4277 11.0272 10.4712 11.133 10.5412ZM13.0826 10.5599C13.0757 10.5534 13.0681 10.5477 13.0597 10.543C13.1762 10.466 13.3031 10.4209 13.4404 10.4077C13.6012 10.3915 13.7066 10.4797 13.7415 10.6529L13.7239 10.7107C13.6785 10.6942 13.6714 10.648 13.656 10.6113C13.6129 10.5138 13.5352 10.4658 13.4291 10.4823C13.3466 10.4945 13.2662 10.5181 13.1902 10.5524C13.1554 10.5678 13.1205 10.5895 13.0826 10.5599ZM12.5239 10.6529L12.5062 10.6747C12.4624 10.6739 12.4447 10.6435 12.4327 10.609C12.3928 10.5136 12.3712 10.4114 12.369 10.3079C12.3769 10.2727 12.3874 10.237 12.4226 10.2168C12.4447 10.3645 12.4635 10.513 12.5239 10.6529Z" fill="#BF9200"/>
<path fill-rule="evenodd" clip-rule="evenodd" d="M12.4237 10.219C12.4159 10.249 12.4267 10.2847 12.4046 10.3132C12.351 10.2505 12.3382 9.94867 12.3877 9.88305C12.3927 9.8693 12.3981 9.85555 12.4039 9.8418C12.4406 9.96667 12.4252 10.0923 12.4237 10.2205M11.1802 13.159C11.1862 13.171 11.1914 13.1834 11.1956 13.1962C11.2462 13.2648 11.2136 13.3154 11.1611 13.3619C11.1311 13.3649 11.1412 13.3349 11.13 13.3229C11.1439 13.2674 11.1532 13.2097 11.1802 13.159ZM12.9964 13.1965C13.0011 13.184 13.0062 13.1717 13.0117 13.1594C13.0387 13.21 13.0485 13.2678 13.062 13.3237C13.0515 13.3353 13.062 13.3653 13.0309 13.3627C12.9784 13.3162 12.9457 13.2652 12.9964 13.1965Z" fill="#BF9200"/>
<path fill-rule="evenodd" clip-rule="evenodd" d="M11.1304 13.3232C11.1371 13.3356 11.1424 13.3487 11.1491 13.3626C11.184 13.4174 11.1806 13.4616 11.1116 13.4856C11.1056 13.4736 11.1015 13.4616 11.0955 13.4492L11.1304 13.3232ZM13.0444 13.363C13.0496 13.349 13.0555 13.3359 13.062 13.3236C13.0732 13.3656 13.085 13.4077 13.0972 13.45C13.0909 13.462 13.0867 13.474 13.0807 13.4864C13.0117 13.4616 13.0084 13.4177 13.0444 13.363ZM11.3947 11.6774C11.3726 11.6384 11.3685 11.5952 11.3599 11.5529C11.3325 11.5079 11.3572 11.4644 11.3625 11.4197C11.3797 11.4982 11.3965 11.5771 11.4127 11.6564C11.4071 11.6635 11.4071 11.6766 11.3947 11.6774ZM11.3213 12.6392L11.3426 12.5856C11.3576 12.5931 11.349 12.6119 11.3576 12.6216C11.3471 12.6771 11.3366 12.7352 11.3089 12.7862C11.3032 12.7667 11.2991 12.7465 11.2928 12.7255C11.307 12.6985 11.2879 12.6599 11.3213 12.6392ZM11.6119 11.1145C11.5754 11.1197 11.5394 11.1257 11.5039 11.1325L11.4469 11.1156C11.4859 11.0999 11.5275 11.0995 11.5695 11.0976C11.5871 11.0939 11.6081 11.0792 11.6119 11.1145ZM10.965 13.684C11.0344 13.6986 11.1056 13.7061 11.1713 13.7312C11.2793 13.7706 11.3329 13.7189 11.3711 13.63C11.3936 13.627 11.4135 13.6289 11.4315 13.6439C11.4559 13.663 11.4919 13.6679 11.5001 13.7065C11.5095 13.756 11.5466 13.7669 11.5909 13.7616C11.6794 13.7736 11.7671 13.786 11.8575 13.7762C11.8665 13.7782 11.8746 13.7834 11.88 13.7909V13.8216C11.7794 13.8347 11.6776 13.8349 11.577 13.8224C11.4832 13.8104 11.4206 13.8377 11.3824 13.9409C11.3535 13.78 11.2343 13.7687 11.1154 13.7489C11.0509 13.7395 10.986 13.7305 10.9268 13.6994L10.965 13.684ZM12.8212 13.6311C12.8149 13.6682 12.8644 13.669 12.867 13.6997L12.8497 13.7192C12.831 13.7354 12.7916 13.7339 12.7931 13.7691C12.7965 13.7969 12.8314 13.7912 12.8486 13.8059L12.8663 13.825C12.8483 13.8602 12.8291 13.8951 12.8051 13.9427C12.7729 13.8426 12.7087 13.8074 12.6172 13.8235C12.5512 13.7942 12.483 13.816 12.4159 13.8096C12.3806 13.8066 12.3442 13.8149 12.3127 13.7927C12.3709 13.7342 12.4462 13.7642 12.513 13.7627C12.5936 13.7594 12.6716 13.7774 12.7087 13.6784C12.7155 13.6611 12.7444 13.6585 12.7609 13.6461C12.7774 13.63 12.7987 13.6274 12.8212 13.6311ZM12.8362 12.6216L12.8126 12.5421C12.7972 12.5301 12.78 12.5222 12.7706 12.5042C12.7101 12.3645 12.6702 12.2167 12.6521 12.0655C12.6502 12.0479 12.654 12.031 12.6491 12.0126C12.6982 11.8772 12.7672 11.7479 12.7845 11.602L12.8119 11.6196C12.8419 11.6976 12.828 11.7805 12.8314 11.8615C12.8404 12.1004 12.8419 12.3404 12.8745 12.5766C12.8704 12.5999 12.8666 12.6224 12.8362 12.6216ZM12.6896 11.1329C12.6202 11.1336 12.5565 11.1126 12.4909 11.0972C12.4935 11.0616 12.516 11.0762 12.5336 11.0792C12.6041 11.0912 12.6761 11.1036 12.7455 11.1141C12.7271 11.1211 12.7085 11.1274 12.6896 11.1329Z" fill="#BF9200"/>
<path fill-rule="evenodd" clip-rule="evenodd" d="M12.8512 12.5862L12.8726 12.6398C12.906 12.6604 12.8869 12.699 12.9007 12.7268C12.8952 12.747 12.8901 12.7673 12.8854 12.7875C12.8572 12.7354 12.8482 12.6788 12.8359 12.6222L12.8512 12.5862ZM12.42 12.6413C12.3686 12.7422 12.3097 12.8408 12.348 12.9615C12.3574 12.9773 12.3472 12.9945 12.3506 13.0107C12.3802 13.1235 12.4121 13.2372 12.4181 13.3557C12.4105 13.3879 12.4115 13.4215 12.4211 13.4532C12.4665 13.4862 12.4811 13.5259 12.4369 13.5717L12.4211 13.5915C12.3911 13.5949 12.3652 13.6122 12.3345 13.6088C12.2745 13.6013 12.2209 13.5788 12.2156 13.512C12.2077 13.4194 12.1942 13.3264 12.1856 13.2338C12.1864 13.1772 12.1747 13.122 12.1732 13.0658C12.1665 13.0455 12.1699 13.0227 12.162 13.0043C12.1644 13.0102 12.166 13.0164 12.1669 13.0227C12.1669 13.0459 12.1747 13.0665 12.1766 13.0905C12.1871 13.1693 12.1747 13.2522 12.2017 13.3298C12.201 13.389 12.2145 13.4475 12.2119 13.5079C12.2107 13.5874 12.1564 13.6482 12.0919 13.6448C12.0311 13.6425 11.9809 13.5833 11.9801 13.5079C11.979 13.4434 11.9887 13.3778 11.994 13.3137C12.0146 13.2405 12.0082 13.1652 12.0161 13.0905C12.0191 13.0508 12.0367 13.0125 12.0326 12.9724C12.0352 13.0095 12.0244 13.044 12.0165 13.0793C12.0206 13.1307 12.0045 13.1813 12.0067 13.2323C11.9947 13.3223 11.9854 13.4128 11.9786 13.5038C11.9737 13.569 11.9171 13.6103 11.8489 13.6092C11.8215 13.6084 11.7982 13.5938 11.7716 13.5919L11.7555 13.572C11.7124 13.5263 11.7255 13.4869 11.7709 13.4535C11.778 13.4228 11.7844 13.3898 11.7919 13.359C11.7851 13.2788 11.7817 13.1993 11.8136 13.1224C11.8216 13.0999 11.8135 13.0889 11.7892 13.0894L11.7739 13.0699C11.8041 13.0224 11.8346 12.9754 11.8654 12.9289C11.8803 12.8944 11.8885 12.8574 11.8897 12.8198C11.8909 12.756 11.898 12.6927 11.9227 12.6319C11.9329 12.6098 11.9506 12.5921 11.9726 12.582C12.0964 12.672 12.0964 12.672 12.2205 12.5802C12.2411 12.5908 12.2578 12.6076 12.2685 12.6282C12.2864 12.6734 12.2974 12.721 12.3011 12.7695C12.3017 12.7017 12.3227 12.6355 12.3615 12.5798C12.3659 12.5745 12.3713 12.5701 12.3774 12.5669C12.3836 12.5636 12.3902 12.5617 12.3971 12.561C12.4296 12.566 12.4466 12.5849 12.4481 12.6177C12.444 12.6323 12.4372 12.6439 12.42 12.6413Z" fill="#BF9200"/>
<path fill-rule="evenodd" clip-rule="evenodd" d="M12.4162 13.1096L12.3281 12.9968C12.3344 12.9845 12.3409 12.9728 12.3476 12.9615C12.3832 13.0005 12.4099 13.0436 12.4335 13.0901L12.4162 13.1096ZM11.9516 10.7198C12.024 10.6395 12.024 10.5349 12.0401 10.4366C12.0562 10.3433 12.0622 10.2491 12.0724 10.1509C12.1102 10.164 12.1001 10.1865 12.099 10.2038C12.0885 10.3556 12.0739 10.5075 12.03 10.6541C12.0236 10.677 12.0142 10.6991 12.0236 10.7235L12.006 10.7419H11.9715C11.9516 10.7475 11.9467 10.7385 11.9516 10.7198ZM12.1665 10.5375C12.141 10.416 12.1545 10.2945 12.1489 10.1625C12.198 10.1891 12.1811 10.2184 12.1819 10.242C12.1511 10.3391 12.1766 10.4396 12.1665 10.5375Z" fill="#BF9200"/>
<path fill-rule="evenodd" clip-rule="evenodd" d="M11.9516 10.7197L11.9722 10.7419C11.9347 10.7794 11.8931 10.8086 11.8444 10.8285C11.8211 10.8124 11.8226 10.7955 11.8444 10.7794C11.8894 10.7764 11.9167 10.7411 11.9516 10.7197ZM11.6119 11.1146C11.5979 11.1094 11.5837 11.1037 11.5695 11.0977C11.677 11.0672 11.7847 11.0372 11.8927 11.0077C11.9111 11.0002 11.9167 11.007 11.9167 11.025C11.819 11.0667 11.7167 11.0968 11.6119 11.1146ZM12.3405 11.0494C12.2699 11.0344 12.2039 11.0026 12.1481 10.9567C12.15 10.9455 12.1594 10.9447 12.1676 10.9414L12.3645 11.0295C12.3664 11.0479 12.3615 11.0576 12.3405 11.0494Z" fill="#BF9200"/>
<path fill-rule="evenodd" clip-rule="evenodd" d="M11.9167 11.0246L11.8927 11.0074L12.0611 10.9219C12.0651 10.9233 12.0688 10.9255 12.0719 10.9284C12.075 10.9313 12.0775 10.9348 12.0791 10.9388C12.0326 10.9838 11.9745 11.0051 11.9167 11.0246ZM12.3405 11.0494L12.3645 11.0299C12.4204 11.0464 12.4777 11.0636 12.5332 11.0794C12.5194 11.0861 12.5047 11.091 12.4905 11.0974C12.4395 11.0861 12.3866 11.0764 12.3405 11.0494Z" fill="#BF9200"/>
<path fill-rule="evenodd" clip-rule="evenodd" d="M12.0787 10.9386C12.072 10.933 12.0675 10.9274 12.0607 10.9217C12.1099 10.8535 12.1335 10.9195 12.1672 10.9412L12.1478 10.9566C12.1256 10.9502 12.1087 10.9199 12.0787 10.9386ZM12.3292 12.4011C12.3465 12.3445 12.3502 12.2879 12.3502 12.2286C12.3487 11.8904 12.3502 11.5532 12.3487 11.215C12.3487 11.1816 12.3649 11.1437 12.3292 11.1149C12.3242 11.1129 12.3226 11.1102 12.3244 11.107C12.3259 11.1037 12.3275 11.1021 12.3292 11.1021C12.4717 11.1306 12.6105 11.1786 12.7586 11.1786C12.7976 11.1794 12.7995 11.2045 12.7984 11.2334C12.7796 11.6785 12.6341 12.0719 12.3292 12.4011ZM11.8612 11.1145C11.8189 11.1224 11.8256 11.1569 11.8256 11.1842C11.8256 11.5495 11.8275 11.9155 11.8241 12.2807C11.8241 12.3179 11.85 12.3467 11.8462 12.3827C11.6066 12.1232 11.4746 11.8127 11.4161 11.4696C11.4026 11.3909 11.4008 11.3099 11.3944 11.2292C11.3903 11.1925 11.4037 11.1764 11.4427 11.1764C11.5807 11.1734 11.7124 11.1317 11.8444 11.0984C11.8631 11.0894 11.865 11.0999 11.8612 11.1145ZM11.3588 12.6216C11.3544 12.6094 11.3494 12.5973 11.3438 12.5856C11.4037 12.2856 11.3974 11.9811 11.3962 11.677L11.4142 11.6564L11.5444 12.0104C11.5541 12.0291 11.5436 12.046 11.5463 12.064C11.5245 12.2155 11.4862 12.3629 11.4247 12.5042C11.4165 12.5222 11.3985 12.5301 11.3839 12.5414L11.3588 12.6216ZM12.42 12.6411L12.4365 12.6216C12.5093 12.598 12.4856 12.5387 12.4856 12.4892C12.4841 12.4379 12.4455 12.4397 12.4095 12.4371C12.4031 12.4355 12.3974 12.4319 12.3932 12.4267C12.3891 12.4216 12.3868 12.4152 12.3866 12.4086C12.4807 12.283 12.5696 12.1514 12.6465 12.0126L12.6694 12.0475C12.6439 12.1419 12.6271 12.2384 12.6191 12.3359C12.6097 12.4649 12.6686 12.5159 12.7909 12.4926C12.7976 12.5081 12.8041 12.5246 12.8104 12.5421C12.744 12.6516 12.744 12.6516 12.6454 12.5556C12.6244 12.5354 12.6019 12.5155 12.5689 12.4847L12.5284 12.7904L12.42 12.6411Z" fill="#BF9200"/>
<path fill-rule="evenodd" clip-rule="evenodd" d="M11.382 12.5414L11.4007 12.493C11.484 12.5275 11.5339 12.4829 11.5766 12.4206C11.5965 12.3955 11.6055 12.3614 11.6362 12.346C11.6591 12.3419 11.6839 12.343 11.7019 12.3224C11.7069 12.3189 11.7127 12.3169 11.7188 12.3165C11.7249 12.3161 11.731 12.3173 11.7364 12.3201C11.7547 12.343 11.7806 12.3599 11.7866 12.3921C11.7863 12.4002 11.7834 12.4079 11.7784 12.4142C11.7521 12.4334 11.7112 12.4341 11.6989 12.472C11.6779 12.4941 11.6771 12.5361 11.634 12.5335C11.6242 12.5215 11.6389 12.4712 11.5976 12.5087C11.5655 12.5351 11.5357 12.5641 11.5084 12.5954C11.4622 12.6494 11.427 12.6595 11.4045 12.5774C11.4004 12.5642 11.3902 12.5534 11.382 12.5414Z" fill="#BF9200"/>
<path fill-rule="evenodd" clip-rule="evenodd" d="M11.6437 12.3547C11.6337 12.3842 11.6242 12.4141 11.6152 12.4443C11.5871 12.4334 11.5777 12.4083 11.5759 12.3806C11.5651 12.2692 11.5472 12.1586 11.5222 12.0494C11.5286 12.0359 11.5361 12.0239 11.5425 12.0101C11.5837 12.0824 11.6261 12.1529 11.6674 12.2253C11.6718 12.2317 11.6742 12.2393 11.6741 12.2471C11.6644 12.2729 11.6655 12.2999 11.6662 12.3273C11.6632 12.3401 11.6576 12.3498 11.6437 12.3547ZM11.7739 12.3974C11.7776 12.3941 11.7817 12.3929 11.7859 12.3907C11.8485 12.4544 11.9107 12.5167 11.9719 12.5808C11.9735 12.6021 11.9681 12.6233 11.9565 12.6412C11.9107 12.6228 11.8819 12.5681 11.8226 12.5808C11.8109 12.5766 11.8013 12.5682 11.7956 12.5572C11.8069 12.5013 11.7397 12.4559 11.7739 12.3974ZM12.3862 12.4087C12.391 12.4115 12.3951 12.4153 12.3982 12.4199C12.4215 12.4706 12.4087 12.5201 12.3967 12.5699L12.3795 12.5898C12.3214 12.5748 12.2797 12.6146 12.2351 12.6419C12.2205 12.6228 12.2197 12.6011 12.2186 12.5797C12.2741 12.5231 12.3315 12.4661 12.3862 12.4087ZM11.8631 12.4087C11.9411 12.4282 11.9824 12.4859 12.0165 12.5527C11.9542 12.5174 11.9089 12.4631 11.8631 12.4087ZM12.1466 11.0268C12.0926 10.9871 12.0544 11.0546 12.0049 11.0463C12.0499 11.0216 12.0832 10.9181 12.1466 11.0268ZM12.0337 12.5512C12.0806 12.6014 12.126 12.5722 12.171 12.5471C12.1582 12.5864 12.1312 12.6179 12.0926 12.6179C12.0641 12.6168 12.0352 12.5894 12.0337 12.5512Z" fill="#BF9200"/>
<path fill-rule="evenodd" clip-rule="evenodd" d="M11.6625 12.2549C11.6635 12.2449 11.6649 12.2352 11.6666 12.2257C11.6895 12.2572 11.7112 12.2883 11.7352 12.3198L11.7172 12.3401C11.6719 12.3431 11.6651 12.3067 11.6527 12.2774C11.6534 12.269 11.6568 12.2611 11.6625 12.2549ZM12.2212 12.4987C12.2422 12.4642 12.2546 12.4181 12.3105 12.4278C12.2854 12.4582 12.2636 12.4919 12.2212 12.4987ZM12.3292 11.1007V11.1138C12.2974 11.1044 12.2587 11.1059 12.2422 11.0654C12.2743 11.0676 12.3048 11.0799 12.3292 11.1007ZM11.8612 11.1146L11.8444 11.0992C11.8706 11.0763 11.9006 11.0654 11.934 11.0846C11.9149 11.1071 11.8867 11.1089 11.8612 11.1146ZM11.8087 12.5493L11.8256 12.5692C11.8751 12.6221 11.8789 12.6907 11.8905 12.7559C11.8969 12.7833 11.8942 12.8122 11.9149 12.8362C11.9141 12.8759 11.8867 12.9003 11.8646 12.9288C11.844 12.8294 11.8286 12.7289 11.772 12.6412C11.7551 12.6461 11.7476 12.6348 11.7424 12.6198C11.7424 12.5752 11.7574 12.5456 11.8087 12.5493Z" fill="#BF9200"/>
<path fill-rule="evenodd" clip-rule="evenodd" d="M11.7544 12.6199L11.7724 12.6413C11.7435 12.6841 11.7124 12.7624 11.6741 12.7546C11.6201 12.7414 11.6554 12.6608 11.6407 12.6124C11.6332 12.5869 11.6359 12.5592 11.6332 12.5333L11.6632 12.4448C11.7071 12.4639 11.703 12.5048 11.703 12.5427C11.703 12.5806 11.7135 12.6087 11.7544 12.6199ZM12.7537 14.1672C12.7279 14.1724 12.6968 14.1844 12.6923 14.1421C12.6896 14.1031 12.7147 14.0809 12.7432 14.0633C12.7954 14.0318 12.7886 14.1016 12.8243 14.1181C12.8299 14.0554 12.8996 14.0254 12.879 13.9572C12.8775 13.9531 12.8925 13.9403 12.9026 13.9358C12.9053 13.9343 12.9199 13.9433 12.9206 13.9482C12.9248 14.0157 13.0054 14.0089 13.0253 14.0599C13.0298 14.0731 13.0504 14.0779 13.0541 14.0689C13.0913 13.9988 13.1468 14.0281 13.2045 14.0449C13.1948 13.9958 13.1857 13.9564 13.1779 13.9174C13.17 13.8784 13.1569 13.8451 13.1066 13.8653C13.0852 13.8739 13.0695 13.8646 13.0673 13.8454C13.0616 13.8207 13.0875 13.8218 13.1029 13.8173C13.1756 13.7986 13.2064 13.8368 13.2206 13.9024C13.2311 13.9621 13.2195 14.0472 13.3286 14.0056C13.3342 14.0029 13.3504 14.0161 13.3549 14.0251C13.3624 14.0412 13.3432 14.0487 13.3361 14.0479C13.2394 14.0419 13.1779 14.1578 13.0732 14.1226C13.0552 14.1177 13.0474 14.1293 13.0414 14.1454C13.0155 14.2084 12.9848 14.2167 12.9289 14.1691C12.8779 14.1263 12.8303 14.1511 12.7958 14.2006C12.7616 14.2118 12.7747 14.1687 12.7537 14.1672ZM11.6625 14.2613C11.7345 14.2362 11.781 14.2058 11.7409 14.1338C11.7281 14.1106 11.7364 14.0892 11.7592 14.0824C11.7802 14.0746 11.7844 14.0978 11.7919 14.1139C11.7994 14.1301 11.8046 14.1507 11.8275 14.1439C11.8511 14.1383 11.8429 14.1158 11.8417 14.0993C11.8399 14.0791 11.8309 14.0547 11.856 14.0434C11.8852 14.0314 11.8852 14.0648 11.8995 14.0761C11.9426 14.1053 11.9925 14.0869 12.0386 14.0914C12.0799 14.0982 12.1294 14.0869 12.114 14.1574C12.153 14.1522 12.1504 14.1192 12.1714 14.1076C12.1954 14.0948 12.2261 14.0746 12.2441 14.0948C12.2606 14.1143 12.2591 14.1507 12.2591 14.1803C12.2599 14.2133 12.2318 14.2133 12.2078 14.2144C12.1646 14.2152 12.1211 14.2066 12.0922 14.2583C12.0784 14.2823 12.0476 14.2808 12.0217 14.2594C11.9306 14.1878 11.8545 14.1852 11.7671 14.2501C11.742 14.2696 11.7146 14.2741 11.6625 14.2613ZM11.5507 14.1957C11.5672 14.1046 11.5834 14.0348 11.5789 13.9624C11.5774 13.9373 11.586 13.9182 11.6081 13.9182C11.6456 13.9182 11.628 13.9482 11.6254 13.9643C11.6161 14.0378 11.6052 14.1114 11.5927 14.1852C11.5879 14.2103 11.5691 14.2272 11.5451 14.2347C11.5215 14.2414 11.5061 14.2279 11.4919 14.2107C11.4356 14.1342 11.3501 14.1128 11.2691 14.1608C11.2421 14.1769 11.2166 14.1893 11.1765 14.1754C11.2312 14.1454 11.271 14.1113 11.2455 14.0449C11.2406 14.0326 11.2511 14.0123 11.2669 14.0097C11.286 14.0056 11.289 14.0251 11.2909 14.0397C11.295 14.0663 11.2987 14.0933 11.3321 14.0997C11.3482 14.1027 11.3625 14.1027 11.3734 14.0911C11.3824 14.0798 11.3692 14.0712 11.3625 14.0618C11.3126 13.9842 11.4157 14.0067 11.4311 13.9651C11.4435 13.9343 11.4836 13.9643 11.4844 13.9909C11.4859 14.0251 11.5871 14.0599 11.4874 14.0944C11.5046 14.1233 11.5226 14.1507 11.5507 14.1957ZM10.9012 13.8256C10.9421 13.7989 10.9879 13.7922 11.0167 13.8076C11.04 13.8207 11.0115 13.8604 11.0044 13.8889C11.0029 13.8946 11.0002 13.9002 10.9999 13.9066C10.9942 13.9433 10.9489 13.9958 10.992 14.0157C11.0561 14.0427 11.0224 13.9624 11.0467 13.9418C11.0572 13.9343 11.0715 13.9317 11.0914 13.9234C11.0895 13.9433 11.0902 13.9546 11.0887 13.9658C11.082 13.9973 11.0497 14.0371 11.1082 14.0502C11.163 14.0633 11.1532 14.0281 11.1532 13.9932C11.1536 13.9669 11.1855 13.9639 11.2087 13.9628C11.2106 13.9669 11.2136 13.9699 11.2129 13.9726C11.1746 14.1308 11.1994 14.1154 11.0434 14.0779C11.0002 14.0686 10.9579 14.0551 10.9151 14.0419C10.893 14.0367 10.8615 14.0397 10.8589 14.0082C10.8574 13.9752 10.8795 13.9542 10.9102 13.9414C10.9271 13.9372 10.9428 13.9291 10.956 13.9178C10.9931 13.8751 10.9736 13.8376 10.9012 13.8256ZM12.3615 14.2159C12.2895 14.1972 12.3184 14.1454 12.3435 14.1233C12.3926 14.0832 12.3934 14.0397 12.3735 13.9894C12.3626 13.9613 12.3746 13.9467 12.3956 13.9433C12.4215 13.9403 12.417 13.9662 12.4192 13.9823C12.4252 14.0273 12.429 14.0708 12.435 14.1151C12.4369 14.1391 12.4376 14.1679 12.4736 14.1582C12.4999 14.1511 12.5055 14.1331 12.4943 14.1098C12.4856 14.0892 12.4751 14.0671 12.504 14.0596C12.543 14.0502 12.534 14.0862 12.5408 14.1061C12.5644 14.1829 12.5276 14.2084 12.456 14.2039C12.4282 14.2381 12.3926 14.2107 12.3615 14.2159ZM12.5483 14.2613C12.6041 14.2066 12.6435 14.1661 12.5842 14.1109C12.567 14.0967 12.5824 14.0689 12.6022 14.0599C12.6232 14.0521 12.6285 14.0761 12.6382 14.0907C12.6877 14.1721 12.6683 14.2261 12.5483 14.2613ZM11.67 13.9201C11.6974 13.9347 11.7217 13.9422 11.7097 13.9729C11.6876 14.0262 11.6876 14.0828 11.6827 14.1376C11.6812 14.1567 11.6827 14.1856 11.6527 14.1796C11.622 14.1739 11.6374 14.1473 11.64 14.1293C11.6432 14.0936 11.6475 14.0584 11.6527 14.0239C11.658 13.9917 11.6625 13.9598 11.67 13.9201Z" fill="#BF9200"/>
<path fill-rule="evenodd" clip-rule="evenodd" d="M12.4537 14.2217C12.4717 14.2284 12.4901 14.2431 12.4766 14.2603C12.4537 14.2862 12.4177 14.2652 12.3877 14.2697C12.3682 14.2738 12.3649 14.2487 12.3799 14.2314C12.402 14.2149 12.4282 14.2194 12.4537 14.2217ZM12.7537 14.1673C12.7676 14.1786 12.78 14.1902 12.795 14.2003C12.7785 14.2382 12.7496 14.2419 12.7129 14.2356C12.7211 14.2074 12.7736 14.2086 12.7537 14.1673ZM12.3394 13.9839C12.3352 14.0008 12.3259 14.0046 12.3146 14.0008C12.3079 13.9989 12.3 13.9892 12.3 13.9854C12.3007 13.9708 12.3116 13.9648 12.3251 13.9693C12.3311 13.9716 12.3356 13.9787 12.3394 13.9839ZM12.3442 14.0548C12.3371 14.0634 12.3292 14.0736 12.3172 14.0668C12.3067 14.0601 12.2981 14.0511 12.3056 14.0387C12.3116 14.0274 12.3202 14.0188 12.3326 14.0274C12.3427 14.0319 12.3502 14.0413 12.3442 14.0548ZM13.296 14.1129C13.2907 14.1294 13.2799 14.1328 13.2675 14.1317C13.2562 14.1302 13.2424 14.1249 13.2502 14.1096C13.2544 14.1017 13.2664 14.0949 13.2761 14.0934C13.2896 14.0919 13.2949 14.1028 13.296 14.1129ZM10.9387 14.0912C10.932 14.1047 10.9234 14.1129 10.9102 14.1066C10.9042 14.1028 10.8979 14.0927 10.8997 14.0859C10.9024 14.0751 10.9136 14.0683 10.9256 14.0751C10.932 14.0773 10.9354 14.0863 10.9387 14.0912ZM11.1142 14.1407C11.1056 14.1463 11.0996 14.1542 11.094 14.1549C11.0797 14.1579 11.0715 14.1474 11.076 14.1358C11.0782 14.1298 11.0887 14.1246 11.0955 14.1246C11.1004 14.1249 11.1056 14.1339 11.1142 14.1407ZM11.1409 13.6464C11.1665 13.64 11.1933 13.6401 11.2188 13.6467C11.2444 13.6533 11.2679 13.6662 11.2871 13.6843C11.2331 13.6929 11.1862 13.6742 11.1409 13.6464ZM10.9275 13.5827C10.9513 13.5756 10.9766 13.5756 11.0004 13.5828C11.0242 13.5899 11.0454 13.6038 11.0614 13.6228C11.0145 13.6314 10.9747 13.6134 10.9275 13.5827ZM12.9056 13.6791C12.9472 13.6464 12.9979 13.6389 13.0485 13.6367L13.0549 13.6588L12.9131 13.7004L12.9056 13.6791ZM13.1197 13.6277C13.1617 13.5838 13.2041 13.5741 13.2649 13.5778C13.2459 13.5963 13.223 13.6104 13.1979 13.619C13.1728 13.6276 13.1461 13.6306 13.1197 13.6277ZM11.5762 13.7916H11.8631C11.7692 13.8174 11.6701 13.8174 11.5762 13.7916ZM12.0225 13.0716L12.0079 13.0742L12.0307 12.9141C12.0431 12.9846 12.0491 13.0296 12.0225 13.0716ZM12.153 13.0168V12.9351C12.1747 12.9572 12.1657 12.9789 12.1695 12.9992C12.1781 13.0179 12.168 13.0198 12.153 13.0168Z" fill="#BF9200"/>
<path fill-rule="evenodd" clip-rule="evenodd" d="M12.153 13.0166L12.1695 12.999C12.1761 13.0069 12.1806 13.0163 12.1828 13.0264C12.1849 13.0364 12.1846 13.0469 12.1819 13.0568C12.1769 13.0623 12.1715 13.0674 12.1657 13.0721C12.1511 13.0568 12.15 13.0365 12.153 13.0166ZM11.6587 13.728C11.606 13.7396 11.5515 13.7408 11.4982 13.7314C11.5545 13.6875 11.6006 13.686 11.6587 13.728ZM11.8504 13.737C11.8121 13.755 11.7709 13.7524 11.7274 13.755C11.7337 13.7201 11.7555 13.722 11.7754 13.722C11.7982 13.7336 11.8286 13.7134 11.8504 13.737Z" fill="#BF9200"/>
<path fill-rule="evenodd" clip-rule="evenodd" d="M11.8504 13.7369C11.8245 13.7328 11.7971 13.7369 11.7754 13.7219C11.8054 13.7197 11.8346 13.7184 11.8631 13.7182C11.871 13.7182 11.8808 13.7261 11.8669 13.7336C11.8628 13.7369 11.856 13.7351 11.8504 13.7369ZM12.681 13.7223C12.634 13.7388 12.5833 13.7415 12.5348 13.7302C12.5869 13.6807 12.633 13.7002 12.681 13.7223ZM12.42 13.7219C12.438 13.7182 12.453 13.7257 12.4744 13.7474C12.4307 13.757 12.3851 13.7534 12.3435 13.7369C12.3656 13.7133 12.3956 13.7336 12.42 13.7219Z" fill="#BF9200"/>
<path fill-rule="evenodd" clip-rule="evenodd" d="M12.42 13.722C12.3964 13.737 12.3694 13.7329 12.3435 13.737C12.336 13.7329 12.3034 13.7351 12.3289 13.722C12.3517 13.7081 12.3881 13.7201 12.42 13.722ZM11.6625 12.267C11.643 12.2816 11.6512 12.3034 11.6445 12.3214C11.6317 12.2974 11.6231 12.2722 11.6351 12.2475C11.64 12.2355 11.6539 12.249 11.6625 12.255V12.267ZM11.4371 14.0175C11.4446 14.0257 11.4525 14.0306 11.454 14.0374C11.4619 14.0557 11.4461 14.0557 11.4356 14.0542C11.4296 14.0542 11.4202 14.0441 11.421 14.0389C11.4217 14.0321 11.4296 14.0257 11.4371 14.0175Z" fill="#BF9200"/>
</svg>
