<svg width="67" height="21" viewBox="0 0 67 21" fill="none" xmlns="http://www.w3.org/2000/svg">
<path d="M28.9744 19.9678H23.5581L26.9458 0.355469H32.3619L28.9744 19.9678Z" fill="white"/>
<path d="M48.6068 0.834974C47.5385 0.438146 45.844 0 43.7488 0C38.4 0 34.6335 2.67047 34.6104 6.48844C34.5659 9.30533 37.3071 10.8699 39.3573 11.8091C41.4528 12.7689 42.1651 13.3953 42.1651 14.2508C42.1438 15.5647 40.4718 16.1704 38.9124 16.1704C36.75 16.1704 35.5913 15.8581 33.8305 15.1271L33.1173 14.8138L32.3594 19.2163C33.6297 19.7582 35.9701 20.239 38.4 20.2601C44.0832 20.2601 47.7831 17.6309 47.827 13.5623C47.8486 11.3297 46.4011 9.61897 43.2805 8.22106C41.3862 7.32369 40.226 6.71861 40.226 5.80044C40.2482 4.96575 41.2073 4.11081 43.3457 4.11081C45.1065 4.06893 46.4002 4.46521 47.3803 4.86176L47.8702 5.07001L48.6068 0.834974Z" fill="white"/>
<path d="M55.8081 13.0198C56.2542 11.8931 57.9706 7.53246 57.9706 7.53246C57.9481 7.57434 58.4157 6.38496 58.6832 5.65481L59.0617 7.34473C59.0617 7.34473 60.0874 12.0393 60.3101 13.0198C59.4636 13.0198 56.878 13.0198 55.8081 13.0198ZM62.4939 0.355469H58.3044C57.0124 0.355469 56.0309 0.709868 55.4735 1.98271L47.4282 19.9675H53.1114C53.1114 19.9675 54.047 17.5469 54.2481 17.0255C54.8716 17.0255 60.4002 17.0255 61.2022 17.0255C61.3577 17.7141 61.8485 19.9675 61.8485 19.9675H66.8635L62.4939 0.355469Z" fill="white"/>
<path d="M19.0333 0.355469L13.7289 13.7292L13.1493 11.0168C12.1686 7.88714 9.09306 4.4868 5.66089 2.79605L10.5195 19.947H16.2471L24.7606 0.355469H19.0333Z" fill="white"/>
<path d="M8.80346 0.355469H0.0891508L0 0.751787C6.7977 2.37949 11.2997 6.30301 13.1494 11.0189L11.255 2.00425C10.9431 0.751509 9.98464 0.396792 8.80346 0.355469Z" fill="#FAA61A"/>
</svg>
